<?xml version="1.0" encoding="UTF-8" standalone="no"?><svg xmlns="http://www.w3.org/2000/svg" xmlns:xlink="http://www.w3.org/1999/xlink" contentStyleType="text/css" height="1051px" preserveAspectRatio="none" style="width:562px;height:1051px;background:#EEEBDC;" version="1.1" viewBox="0 0 562 1051" width="562px" zoomAndPan="magnify"><defs/><g><rect fill="none" height="668.7422" style="stroke:#000000;stroke-width:1.5;" width="546" x="10" y="191.6953"/><rect fill="none" height="102.2031" style="stroke:#000000;stroke-width:1.5;" width="163" x="216" y="309.2266"/><rect fill="none" height="102.2031" style="stroke:#000000;stroke-width:1.5;" width="245" x="160" y="425.4297"/><rect fill="none" height="102.2031" style="stroke:#000000;stroke-width:1.5;" width="163" x="216" y="635.0313"/><rect fill="none" height="102.2031" style="stroke:#000000;stroke-width:1.5;" width="245" x="160" y="751.2344"/><line style="stroke:#181818;stroke-width:0.5;stroke-dasharray:5.0,5.0;" x1="48" x2="48" y1="81.2969" y2="970.8359"/><line style="stroke:#181818;stroke-width:0.5;stroke-dasharray:5.0,5.0;" x1="282.5" x2="282.5" y1="81.2969" y2="970.8359"/><line style="stroke:#181818;stroke-width:0.5;stroke-dasharray:5.0,5.0;" x1="518" x2="518" y1="81.2969" y2="970.8359"/><text fill="#000000" font-family="sans-serif" font-size="14" lengthAdjust="spacing" textLength="50" x="20" y="77.9951">Player1</text><ellipse cx="48" cy="13.5" fill="#E2E2F0" rx="8" ry="8" style="stroke:#181818;stroke-width:0.5;"/><path d="M48,21.5 L48,48.5 M35,29.5 L61,29.5 M48,48.5 L35,63.5 M48,48.5 L61,63.5 " fill="none" style="stroke:#181818;stroke-width:0.5;"/><text fill="#000000" font-family="sans-serif" font-size="14" lengthAdjust="spacing" textLength="50" x="20" y="982.8311">Player1</text><ellipse cx="48" cy="994.6328" fill="#E2E2F0" rx="8" ry="8" style="stroke:#181818;stroke-width:0.5;"/><path d="M48,1002.6328 L48,1029.6328 M35,1010.6328 L61,1010.6328 M48,1029.6328 L35,1044.6328 M48,1029.6328 L61,1044.6328 " fill="none" style="stroke:#181818;stroke-width:0.5;"/><text fill="#000000" font-family="sans-serif" font-size="14" lengthAdjust="spacing" textLength="55" x="252.5" y="77.9951">Referee</text><ellipse cx="283" cy="13.5" fill="#E2E2F0" rx="8" ry="8" style="stroke:#181818;stroke-width:0.5;"/><path d="M283,21.5 L283,48.5 M270,29.5 L296,29.5 M283,48.5 L270,63.5 M283,48.5 L296,63.5 " fill="none" style="stroke:#181818;stroke-width:0.5;"/><text fill="#000000" font-family="sans-serif" font-size="14" lengthAdjust="spacing" textLength="55" x="252.5" y="982.8311">Referee</text><ellipse cx="283" cy="994.6328" fill="#E2E2F0" rx="8" ry="8" style="stroke:#181818;stroke-width:0.5;"/><path d="M283,1002.6328 L283,1029.6328 M270,1010.6328 L296,1010.6328 M283,1029.6328 L270,1044.6328 M283,1029.6328 L296,1044.6328 " fill="none" style="stroke:#181818;stroke-width:0.5;"/><text fill="#000000" font-family="sans-serif" font-size="14" lengthAdjust="spacing" textLength="50" x="490" y="77.9951">Player2</text><ellipse cx="518" cy="13.5" fill="#E2E2F0" rx="8" ry="8" style="stroke:#181818;stroke-width:0.5;"/><path d="M518,21.5 L518,48.5 M505,29.5 L531,29.5 M518,48.5 L505,63.5 M518,48.5 L531,63.5 " fill="none" style="stroke:#181818;stroke-width:0.5;"/><text fill="#000000" font-family="sans-serif" font-size="14" lengthAdjust="spacing" textLength="50" x="490" y="982.8311">Player2</text><ellipse cx="518" cy="994.6328" fill="#E2E2F0" rx="8" ry="8" style="stroke:#181818;stroke-width:0.5;"/><path d="M518,1002.6328 L518,1029.6328 M505,1010.6328 L531,1010.6328 M518,1029.6328 L505,1044.6328 M518,1029.6328 L531,1044.6328 " fill="none" style="stroke:#181818;stroke-width:0.5;"/><path d="M199,96.2969 L199,121.2969 L367,121.2969 L367,106.2969 L357,96.2969 L199,96.2969 " fill="#FEFFDD" style="stroke:#181818;stroke-width:0.5;"/><path d="M357,96.2969 L357,106.2969 L367,106.2969 L357,96.2969 " fill="#FEFFDD" style="stroke:#181818;stroke-width:0.5;"/><text fill="#000000" font-family="sans-serif" font-size="13" lengthAdjust="spacing" textLength="147" x="205" y="113.3638">Set up Labyrinth Board</text><polygon fill="#181818" points="59,143.5625,49,147.5625,59,151.5625,55,147.5625" style="stroke:#181818;stroke-width:1.0;"/><line style="stroke:#181818;stroke-width:1.0;" x1="53" x2="282" y1="147.5625" y2="147.5625"/><text fill="#000000" font-family="sans-serif" font-size="13" lengthAdjust="spacing" textLength="171" x="65" y="142.4966">home + current tile + goal</text><polygon fill="#181818" points="506,172.6953,516,176.6953,506,180.6953,510,176.6953" style="stroke:#181818;stroke-width:1.0;"/><line style="stroke:#181818;stroke-width:1.0;" x1="283" x2="512" y1="176.6953" y2="176.6953"/><text fill="#000000" font-family="sans-serif" font-size="13" lengthAdjust="spacing" textLength="171" x="290" y="171.6294">home + current tile + goal</text><path d="M10,191.6953 L87,191.6953 L87,198.8281 L77,208.8281 L10,208.8281 L10,191.6953 " fill="#EEEEEE" style="stroke:#000000;stroke-width:1.5;"/><rect fill="none" height="668.7422" style="stroke:#000000;stroke-width:1.5;" width="546" x="10" y="191.6953"/><text fill="#000000" font-family="sans-serif" font-size="13" font-weight="bold" lengthAdjust="spacing" textLength="32" x="25" y="204.7622">loop</text><text fill="#000000" font-family="sans-serif" font-size="11" font-weight="bold" lengthAdjust="spacing" textLength="67" x="102" y="203.9058">[until end]</text><polygon fill="#181818" points="59,225.9609,49,229.9609,59,233.9609,55,229.9609" style="stroke:#181818;stroke-width:1.0;"/><line style="stroke:#181818;stroke-width:1.0;" x1="53" x2="282" y1="229.9609" y2="229.9609"/><text fill="#000000" font-family="sans-serif" font-size="13" lengthAdjust="spacing" textLength="211" x="65" y="224.895">send board state to active player</text><polygon fill="#181818" points="271,255.0938,281,259.0938,271,263.0938,275,259.0938" style="stroke:#181818;stroke-width:1.0;"/><line style="stroke:#181818;stroke-width:1.0;" x1="48" x2="277" y1="259.0938" y2="259.0938"/><text fill="#000000" font-family="sans-serif" font-size="13" lengthAdjust="spacing" textLength="140" x="55" y="254.0278">responds with a move</text><path d="M227,272.0938 L227,297.0938 L338,297.0938 L338,282.0938 L328,272.0938 L227,272.0938 " fill="#FEFFDD" style="stroke:#181818;stroke-width:0.5;"/><path d="M328,272.0938 L328,282.0938 L338,282.0938 L328,272.0938 " fill="#FEFFDD" style="stroke:#181818;stroke-width:0.5;"/><text fill="#000000" font-family="sans-serif" font-size="13" lengthAdjust="spacing" textLength="90" x="233" y="289.1606">validate move</text><path d="M216,309.2266 L280,309.2266 L280,316.3594 L270,326.3594 L216,326.3594 L216,309.2266 " fill="#EEEEEE" style="stroke:#000000;stroke-width:1.5;"/><rect fill="none" height="102.2031" style="stroke:#000000;stroke-width:1.5;" width="163" x="216" y="309.2266"/><text fill="#000000" font-family="sans-serif" font-size="13" font-weight="bold" lengthAdjust="spacing" textLength="19" x="231" y="322.2935">alt</text><text fill="#000000" font-family="sans-serif" font-size="11" font-weight="bold" lengthAdjust="spacing" textLength="79" x="295" y="321.437">[valid move]</text><path d="M227,331.3594 L227,356.3594 L339,356.3594 L339,341.3594 L329,331.3594 L227,331.3594 " fill="#FEFFDD" style="stroke:#181818;stroke-width:0.5;"/><path d="M329,331.3594 L329,341.3594 L339,341.3594 L329,331.3594 " fill="#FEFFDD" style="stroke:#181818;stroke-width:0.5;"/><text fill="#000000" font-family="sans-serif" font-size="13" lengthAdjust="spacing" textLength="91" x="233" y="348.4263">execute move</text><line style="stroke:#000000;stroke-width:1.0;stroke-dasharray:2.0,2.0;" x1="216" x2="379" y1="362.4922" y2="362.4922"/><text fill="#000000" font-family="sans-serif" font-size="11" font-weight="bold" lengthAdjust="spacing" textLength="91" x="221" y="372.7026">[invalid move]</text><path d="M226,381.2969 L226,406.2969 L339,406.2969 L339,391.2969 L329,381.2969 L226,381.2969 " fill="#FEFFDD" style="stroke:#181818;stroke-width:0.5;"/><path d="M329,381.2969 L329,391.2969 L339,391.2969 L329,381.2969 " fill="#FEFFDD" style="stroke:#181818;stroke-width:0.5;"/><text fill="#000000" font-family="sans-serif" font-size="13" lengthAdjust="spacing" textLength="92" x="232" y="398.3638">kick out player</text><path d="M160,425.4297 L224,425.4297 L224,432.5625 L214,442.5625 L160,442.5625 L160,425.4297 " fill="#EEEEEE" style="stroke:#000000;stroke-width:1.5;"/><rect fill="none" height="102.2031" style="stroke:#000000;stroke-width:1.5;" width="245" x="160" y="425.4297"/><text fill="#000000" font-family="sans-serif" font-size="13" font-weight="bold" lengthAdjust="spacing" textLength="19" x="175" y="438.4966">alt</text><text fill="#000000" font-family="sans-serif" font-size="11" font-weight="bold" lengthAdjust="spacing" textLength="86" x="239" y="437.6401">[game ends?]</text><path d="M227,447.5625 L227,472.5625 L338,472.5625 L338,457.5625 L328,447.5625 L227,447.5625 " fill="#FEFFDD" style="stroke:#181818;stroke-width:0.5;"/><path d="M328,447.5625 L328,457.5625 L338,457.5625 L328,447.5625 " fill="#FEFFDD" style="stroke:#181818;stroke-width:0.5;"/><text fill="#000000" font-family="sans-serif" font-size="13" lengthAdjust="spacing" textLength="90" x="233" y="464.6294">end the game</text><line style="stroke:#000000;stroke-width:1.0;stroke-dasharray:2.0,2.0;" x1="160" x2="405" y1="478.6953" y2="478.6953"/><text fill="#000000" font-family="sans-serif" font-size="11" font-weight="bold" lengthAdjust="spacing" textLength="112" x="165" y="488.9058">[game continues]</text><path d="M170,497.5 L170,522.5 L395,522.5 L395,507.5 L385,497.5 L170,497.5 " fill="#FEFFDD" style="stroke:#181818;stroke-width:0.5;"/><path d="M385,497.5 L385,507.5 L395,507.5 L385,497.5 " fill="#FEFFDD" style="stroke:#181818;stroke-width:0.5;"/><text fill="#000000" font-family="sans-serif" font-size="13" lengthAdjust="spacing" textLength="204" x="176" y="514.5669">change active player to player 2</text><polygon fill="#181818" points="506,551.7656,516,555.7656,506,559.7656,510,555.7656" style="stroke:#181818;stroke-width:1.0;"/><line style="stroke:#181818;stroke-width:1.0;" x1="283" x2="512" y1="555.7656" y2="555.7656"/><text fill="#000000" font-family="sans-serif" font-size="13" lengthAdjust="spacing" textLength="211" x="290" y="550.6997">send board state to active player</text><polygon fill="#181818" points="294,580.8984,284,584.8984,294,588.8984,290,584.8984" style="stroke:#181818;stroke-width:1.0;"/><line style="stroke:#181818;stroke-width:1.0;" x1="288" x2="517" y1="584.8984" y2="584.8984"/><text fill="#000000" font-family="sans-serif" font-size="13" lengthAdjust="spacing" textLength="140" x="300" y="579.8325">responds with a move</text><path d="M227,597.8984 L227,622.8984 L338,622.8984 L338,607.8984 L328,597.8984 L227,597.8984 " fill="#FEFFDD" style="stroke:#181818;stroke-width:0.5;"/><path d="M328,597.8984 L328,607.8984 L338,607.8984 L328,597.8984 " fill="#FEFFDD" style="stroke:#181818;stroke-width:0.5;"/><text fill="#000000" font-family="sans-serif" font-size="13" lengthAdjust="spacing" textLength="90" x="233" y="614.9653">validate move</text><path d="M216,635.0313 L280,635.0313 L280,642.1641 L270,652.1641 L216,652.1641 L216,635.0313 " fill="#EEEEEE" style="stroke:#000000;stroke-width:1.5;"/><rect fill="none" height="102.2031" style="stroke:#000000;stroke-width:1.5;" width="163" x="216" y="635.0313"/><text fill="#000000" font-family="sans-serif" font-size="13" font-weight="bold" lengthAdjust="spacing" textLength="19" x="231" y="648.0981">alt</text><text fill="#000000" font-family="sans-serif" font-size="11" font-weight="bold" lengthAdjust="spacing" textLength="79" x="295" y="647.2417">[valid move]</text><path d="M227,657.1641 L227,682.1641 L339,682.1641 L339,667.1641 L329,657.1641 L227,657.1641 " fill="#FEFFDD" style="stroke:#181818;stroke-width:0.5;"/><path d="M329,657.1641 L329,667.1641 L339,667.1641 L329,657.1641 " fill="#FEFFDD" style="stroke:#181818;stroke-width:0.5;"/><text fill="#000000" font-family="sans-serif" font-size="13" lengthAdjust="spacing" textLength="91" x="233" y="674.231">execute move</text><line style="stroke:#000000;stroke-width:1.0;stroke-dasharray:2.0,2.0;" x1="216" x2="379" y1="688.2969" y2="688.2969"/><text fill="#000000" font-family="sans-serif" font-size="11" font-weight="bold" lengthAdjust="spacing" textLength="91" x="221" y="698.5073">[invalid move]</text><path d="M226,707.1016 L226,732.1016 L339,732.1016 L339,717.1016 L329,707.1016 L226,707.1016 " fill="#FEFFDD" style="stroke:#181818;stroke-width:0.5;"/><path d="M329,707.1016 L329,717.1016 L339,717.1016 L329,707.1016 " fill="#FEFFDD" style="stroke:#181818;stroke-width:0.5;"/><text fill="#000000" font-family="sans-serif" font-size="13" lengthAdjust="spacing" textLength="92" x="232" y="724.1685">kick out player</text><path d="M160,751.2344 L224,751.2344 L224,758.3672 L214,768.3672 L160,768.3672 L160,751.2344 " fill="#EEEEEE" style="stroke:#000000;stroke-width:1.5;"/><rect fill="none" height="102.2031" style="stroke:#000000;stroke-width:1.5;" width="245" x="160" y="751.2344"/><text fill="#000000" font-family="sans-serif" font-size="13" font-weight="bold" lengthAdjust="spacing" textLength="19" x="175" y="764.3013">alt</text><text fill="#000000" font-family="sans-serif" font-size="11" font-weight="bold" lengthAdjust="spacing" textLength="83" x="239" y="763.4448">[game over?]</text><path d="M227,773.3672 L227,798.3672 L338,798.3672 L338,783.3672 L328,773.3672 L227,773.3672 " fill="#FEFFDD" style="stroke:#181818;stroke-width:0.5;"/><path d="M328,773.3672 L328,783.3672 L338,783.3672 L328,773.3672 " fill="#FEFFDD" style="stroke:#181818;stroke-width:0.5;"/><text fill="#000000" font-family="sans-serif" font-size="13" lengthAdjust="spacing" textLength="90" x="233" y="790.4341">end the game</text><line style="stroke:#000000;stroke-width:1.0;stroke-dasharray:2.0,2.0;" x1="160" x2="405" y1="804.5" y2="804.5"/><text fill="#000000" font-family="sans-serif" font-size="11" font-weight="bold" lengthAdjust="spacing" textLength="112" x="165" y="814.7104">[game continues]</text><path d="M170,823.3047 L170,848.3047 L395,848.3047 L395,833.3047 L385,823.3047 L170,823.3047 " fill="#FEFFDD" style="stroke:#181818;stroke-width:0.5;"/><path d="M385,823.3047 L385,833.3047 L395,833.3047 L385,823.3047 " fill="#FEFFDD" style="stroke:#181818;stroke-width:0.5;"/><text fill="#000000" font-family="sans-serif" font-size="13" lengthAdjust="spacing" textLength="204" x="176" y="840.3716">change active player to player 1</text><path d="M217,872.4375 L217,897.4375 L349,897.4375 L349,882.4375 L339,872.4375 L217,872.4375 " fill="#FEFFDD" style="stroke:#181818;stroke-width:0.5;"/><path d="M339,872.4375 L339,882.4375 L349,882.4375 L339,872.4375 " fill="#FEFFDD" style="stroke:#181818;stroke-width:0.5;"/><text fill="#000000" font-family="sans-serif" font-size="13" lengthAdjust="spacing" textLength="111" x="223" y="889.5044">determine winner</text><polygon fill="#181818" points="59,919.7031,49,923.7031,59,927.7031,55,923.7031" style="stroke:#181818;stroke-width:1.0;"/><line style="stroke:#181818;stroke-width:1.0;" x1="53" x2="282" y1="923.7031" y2="923.7031"/><text fill="#000000" font-family="sans-serif" font-size="13" lengthAdjust="spacing" textLength="97" x="65" y="918.6372">inform of result</text><polygon fill="#181818" points="506,948.8359,516,952.8359,506,956.8359,510,952.8359" style="stroke:#181818;stroke-width:1.0;"/><line style="stroke:#181818;stroke-width:1.0;" x1="283" x2="512" y1="952.8359" y2="952.8359"/><text fill="#000000" font-family="sans-serif" font-size="13" lengthAdjust="spacing" textLength="97" x="290" y="947.77">inform of result</text><!--MD5=[661782bbaa4c3d256a487b544e2a5f31]
@startuml
    skinparam backgroundColor #EEEBDC
    skinparam handwritten false
    actor Player1
    actor Referee
    actor Player2
    note over Referee : Set up Labyrinth Board
    Referee -> Player1 : home + current tile + goal
    Referee -> Player2 : home + current tile + goal

    loop until end
        Referee -> Player1 : send board state to active player
        Player1 -> Referee : responds with a move
        note over Referee : validate move

        alt valid move
            note over Referee : execute move
        else invalid move
            note over Referee : kick out player 
        end

        alt game ends?
            note over Referee: end the game
        else game continues
            note over Referee : change active player to player 2
        end
        
        Referee -> Player2 : send board state to active player
        Player2 -> Referee : responds with a move
        note over Referee : validate move

        alt valid move
            note over Referee : execute move
        else invalid move
            note over Referee : kick out player 
        end

        alt game over?
            note over Referee: end the game
        else game continues 
            note over Referee : change active player to player 1
        end
    end

    note over Referee : determine winner
    Referee -> Player1 : inform of result
    Referee -> Player2 : inform of result
@enduml

PlantUML version 1.2022.7(Mon Aug 22 13:01:30 EDT 2022)
(GPL source distribution)
Java Runtime: OpenJDK Runtime Environment
JVM: OpenJDK 64-Bit Server VM
Default Encoding: UTF-8
Language: en
Country: US
--></g></svg>